#!OML:ASF H:\Terrain\Patient Classification 1\Terrain2\Thursday\justin.ASF
:FULLY-SPECIFIED
:DEGREES
2335
root -12.2167 17.4796 20.795 1624.43 3.28268 184.23
lowerback 2.82335 -0.0745822 -0.841933
upperback 0.850816 -0.0399967 2.32607
thorax -0.707676 0.0059933 2.86125
lowerneck -13.9746 -5.06369 -7.46875
upperneck 38.5508 -2.65541 3.8025
head 16.3968 -0.32796 2.93076
rclavicle 6.00858e-015 -2.23633e-015
rhumerus -34.5816 -16.9192 -78.1949
rradius 25.6175
rwrist -6.15558
rhand -18.2175 11.1936
rfingers 7.12502
rthumb 8.0604 -18.6327
lclavicle 6.00858e-015 -2.23633e-015
lhumerus -30.0829 7.43402 81.3171
lradius 33.2067
lwrist 5.60108
lhand -20.5143 25.3252
lfingers 7.12502
lthumb 5.84331 55.2246
rfemur -12.4506 -2.36254 26.4552
rtibia 35.5621
rfoot -23.2942 0.308528
rtoes 13.9628
lfemur -10.0666 5.90469 -16.1605
ltibia 29.2177
lfoot -22.0251 -16.7708
ltoes -8.1667
2336
root -12.2111 17.4745 20.779 1624.43 3.14505 184.41
lowerback 2.84482 -0.174023 -0.767426
upperback 0.828487 -0.16449 2.43705
thorax -0.735486 -0.0539322 2.93806
lowerneck -13.8285 -4.98967 -7.54529
upperneck 38.4742 -2.52388 3.7844
head 16.3118 -0.287769 2.95534
rclavicle 2.34504e-015 -1.97791e-014
rhumerus -34.5889 -16.3229 -78.3631
rradius 25.6727
rwrist -6.29569
rhand -18.3742 11.2018
rfingers 7.12502
rthumb 7.90917 -18.6303
lclavicle 2.34504e-015 -1.97791e-014
lhumerus -30.4677 7.03135 81.6574
lradius 33.327
lwrist 5.97401
lhand -20.6289 26.2092
lfingers 7.12502
lthumb 5.73266 56.1117
rfemur -12.3691 -2.47072 26.6717
rtibia 35.5477
rfoot -23.3604 0.145903
rtoes 13.9042
lfemur -10.0077 6.21892 -15.8882
ltibia 29.2141
lfoot -21.956 -17.2715
ltoes -8.00679
2337
root -12.2025 17.4679 20.7624 1624.42 3.03286 184.622
lowerback 2.88022 -0.248876 -0.700029
upperback 0.778886 -0.254613 2.57473
thorax -0.80071 -0.09572 3.0456
lowerneck -13.7144 -4.9567 -7.43522
upperneck 38.4773 -2.39518 3.51364
head 16.2679 -0.25122 2.83879
rclavicle 7.64079e-016 -2.9271e-014
rhumerus -34.6595 -15.5575 -78.5575
rradius 25.8019
rwrist -6.85916
rhand -18.6957 11.6548
rfingers 7.12502
rthumb 7.59885 -18.1887
lclavicle 7.64079e-016 -2.9271e-014
lhumerus -30.7806 6.76014 81.9825
lradius 33.2013
lwrist 6.04832
lhand -20.3203 25.7777
lfingers 7.12502
lthumb 6.03059 55.6719
rfemur -12.2767 -2.54182 26.938
rtibia 35.5303
rfoot -23.4474 0.10806
rtoes 14.8759
lfemur -9.91572 6.4091 -15.5626
ltibia 29.2153
lfoot -21.8847 -17.9007
ltoes -7.05758
2338
root -12.1927 17.4665 20.7473 1624.4 2.94522 184.369
lowerback 3.07606 -0.231319 -1.08299
upperback 0.722058 -0.245899 2.55674
thorax -0.967357 -0.0905265 3.24436
lowerneck -13.8828 -5.02601 -7.30439
upperneck 38.6618 -2.41593 3.30665
head 16.4024 -0.261838 2.7305
rclavicle 3.73964e-015 -2.39039e-014
rhumerus -34.746 -15.0992 -78.6601
rradius 26.0333
rwrist -7.43795
rhand -18.7841 11.868
rfingers 7.12502
rthumb 7.51351 -17.9786
lclavicle 3.73964e-015 -2.39039e-014
lhumerus -30.8429 6.746 82.2508
lradius 32.7545
lwrist 5.36907
lhand -19.8468 24.7314
lfingers 7.12502
lthumb 6.48772 54.612
rfemur -12.1887 -2.76303 26.6902
rtibia 35.4918
rfoot -23.5261 0.204877
rtoes 14.3479
lfemur -9.84358 6.20204 -15.7918
ltibia 29.2623
lfoot -22.1215 -18.0627
ltoes -7.00585
2339
root -12.182 17.4668 20.7317 1624.35 2.87579 184.298
lowerback 3.15462 -0.190062 -1.20337
upperback 0.816839 -0.196139 2.5171
thorax -0.91692 -0.0668581 3.26959
lowerneck -13.9783 -5.09832 -7.41448
upperneck 38.6149 -2.58964 3.50296
head 16.4212 -0.33096 2.80277
rclavicle 3.99744e-015 1.33931e-014
rhumerus -34.5837 -15.0543 -78.7773
rradius 26.1742
rwrist -7.63487
rhand -18.6321 11.9028
rfingers 7.12502
rthumb 7.66025 -17.9385
lclavicle 3.99744e-015 1.33931e-014
lhumerus -30.5792 6.81311 82.433
lradius 32.2622
lwrist 4.6718
lhand -19.565 24.778
lfingers 7.12502
lthumb 6.75973 54.65
rfemur -12.0516 -2.75434 26.6687
rtibia 35.4468
rfoot -23.6282 0.131956
rtoes 13.6826
lfemur -9.80134 6.41311 -15.8026
ltibia 29.3129
lfoot -22.0201 -18.5406
ltoes -6.38715
2340
root -12.1719 17.457 20.7143 1624.26 2.82248 184.64
lowerback 3.25102 -0.178136 -0.864808
upperback 0.910184 -0.161208 2.56827
thorax -0.878414 -0.047383 3.13003
lowerneck -13.9097 -5.08997 -7.5749
upperneck 38.4765 -2.66708 3.77605
head 16.3464 -0.356094 2.931
rclavicle -1.72694e-015 -2.49723e-015
rhumerus -34.4591 -15.0864 -78.8944
rradius 26.2282
rwrist -7.56758
rhand -18.4534 11.9732
rfingers 7.12502
rthumb 7.83273 -17.8617
lclavicle -1.72694e-015 -2.49723e-015
lhumerus -30.4079 6.80193 82.5773
lradius 31.8183
lwrist 4.17428
lhand -18.94 24.242
lfingers 7.12502
lthumb 7.36306 54.0938
rfemur -11.8163 -2.52539 27.108
rtibia 35.3963
rfoot -23.7591 -0.0989438
rtoes 13.7203
lfemur -9.65924 6.76114 -15.3332
ltibia 29.3509
lfoot -22.0639 -18.6079
ltoes -6.81317
2341
root -12.1676 17.4454 20.69 1624.17 2.92132 184.768
lowerback 3.27533 -0.0958233 -0.719531
upperback 0.997823 -0.0438571 2.56533
thorax -0.809479 0.0115926 3.04024
lowerneck -13.9541 -5.03477 -7.53888
upperneck 38.477 -2.59663 3.80737
head 16.3506 -0.315683 2.95163
rclavicle 5.33147e-015 -1.0548e-014
rhumerus -34.4138 -15.0824 -78.9632
rradius 26.3243
rwrist -7.32148
rhand -18.5381 11.8427
rfingers 7.12502
rthumb 7.75101 -17.9952
lclavicle 5.33147e-015 -1.0548e-014
lhumerus -30.352 6.66499 82.8021
lradius 31.4675
lwrist 3.27187
lhand -18.0966 22.7137
lfingers 7.12502
lthumb 8.17707 52.5354
rfemur -11.5439 -2.49179 27.2365
rtibia 35.3088
rfoot -23.9462 -0.0282335
rtoes 13.8933
lfemur -9.43713 6.76471 -15.1633
ltibia 29.4383
lfoot -22.5832 -18.0397
ltoes -8.91213
2342
root -12.1686 17.4399 20.6564 1624.14 3.20991 184.792
lowerback 2.96698 0.105651 -0.534598
upperback 1.19374 0.224278 2.43836
thorax -0.450646 0.141542 2.79492
lowerneck -14.0872 -5.11589 -7.31402
upperneck 38.4308 -2.78891 3.75101
head 16.3651 -0.377096 2.8484
rclavicle -5.97907e-015 2.54693e-015
rhumerus -34.2269 -15.2892 -79.0829
rradius 26.3989
rwrist -7.15218
rhand -18.8659 11.8557
rfingers 7.12502
rthumb 7.43463 -17.9937
lclavicle -5.97907e-015 2.54693e-015
lhumerus -30.1973 6.32817 82.9839
lradius 31.2507
lwrist 2.33349
lhand -18.1908 22.7437
lfingers 7.12502
lthumb 8.08616 52.569
rfemur -11.321 -2.46474 27.1942
rtibia 35.1999
rfoot -24.1526 0.263301
rtoes 14.1964
lfemur -9.23755 6.67334 -15.1778
ltibia 29.5421
lfoot -22.968 -17.8479
ltoes -9.75949
2343
root -12.1663 17.4345 20.627 1624.24 3.32714 184.822
lowerback 2.72796 0.199339 -0.383033
upperback 1.19532 0.347742 2.37163
thorax -0.320688 0.20152 2.63747
lowerneck -14.1249 -5.18439 -7.29517
upperneck 38.516 -2.91516 3.85063
head 16.431 -0.406311 2.87287
rclavicle 4.50682e-015 -5.71506e-016
rhumerus -34.1821 -15.1829 -79.1846
rradius 26.4664
rwrist -7.32266
rhand -19.1016 11.9357
rfingers 7.12502
rthumb 7.20704 -17.9216
lclavicle 4.50682e-015 -5.71506e-016
lhumerus -30.4171 6.13956 83.0878
lradius 31.2157
lwrist 1.81539
lhand -18.6838 23.9291
lfingers 7.12502
lthumb 7.61032 53.7721
rfemur -11.2472 -2.44627 27.2239
rtibia 35.107
rfoot -24.364 0.330981
rtoes 14.3846
lfemur -9.26087 6.7326 -15.1798
ltibia 29.6046
lfoot -23.2243 -17.5404
ltoes -11.1669
2344
root -12.1567 17.4313 20.6073 1624.34 3.16183 184.673
lowerback 2.71385 0.111938 -0.61846
upperback 1.0295 0.222325 2.40926
thorax -0.477463 0.138155 2.81246
lowerneck -13.9941 -5.12693 -7.45717
upperneck 38.6915 -2.71995 3.87952
head 16.4836 -0.325596 2.9633
rclavicle -1.27968e-015 3.95706e-015
rhumerus -34.3209 -14.6318 -79.206
rradius 26.5818
rwrist -7.52878
rhand -19.0189 12.0628
rfingers 7.12502
rthumb 7.28687 -17.7917
lclavicle -1.27968e-015 3.95706e-015
lhumerus -30.8728 6.32686 83.2291
lradius 31.1636
lwrist 1.51988
lhand -18.4533 24.0211
lfingers 7.12502
lthumb 7.83283 53.856
rfemur -11.2158 -2.51122 27.1341
rtibia 35.0206
rfoot -24.5562 0.293676
rtoes 14.8701
lfemur -9.41517 6.67044 -15.3321
ltibia 29.6927
lfoot -23.4618 -16.7229
ltoes -13.6691
